<svg xmlns="http://www.w3.org/2000/svg" xmlns:v="https://svgstorm.com"
viewBox = "0 0 48 48"
width="48"
height="48">
<g fill="None" fill-opacity="0.0" stroke="#000000" stroke-opacity="0.00" stroke-width="0.3"><path d="
M 0.00 48.00 
L 48.00 48.00
L 48.00 0.00
L 0.00 0.00
L 0.00 48.00
M 42.00 9.00 
C 42.25 8.75 43.00 9.00 43.00 9.00
C 44.54 9.78 43.97 12.47 44.00 14.00
C 44.02 15.33 44.00 16.67 44.00 18.00
C 44.01 21.02 42.23 22.91 42.00 24.00
C 42.00 29.33 42.00 34.67 42.00 40.00
C 42.00 41.14 42.33 42.92 42.00 44.00
C 41.89 44.35 41.35 44.95 41.00 45.00
C 32.82 46.18 22.24 45.74 14.00 45.00
C 12.14 45.50 9.90 44.62 8.00 45.00
C 8.00 43.33 8.00 41.67 8.00 40.00
C 8.08 39.51 8.00 38.50 8.00 38.00
C 7.89 37.74 7.23 37.28 7.00 37.00
C 5.48 35.20 6.32 34.68 7.00 33.00
C 7.17 32.57 7.17 31.43 7.00 31.00
C 6.17 28.93 6.19 29.02 7.00 27.00
C 7.17 26.57 7.19 25.41 7.00 25.00
C 5.87 22.51 5.87 17.48 7.00 15.00
C 7.19 14.59 7.17 13.43 7.00 13.00
C 6.30 11.26 5.50 10.78 7.00 9.00
C 7.23 8.72 8.00 8.16 8.00 8.00
C 8.00 6.33 8.00 4.67 8.00 3.00
C 10.00 3.00 12.00 3.00 14.00 3.00
C 23.30 2.44 32.69 3.42 42.00 3.00
C 42.00 5.00 42.00 7.00 42.00 9.00 Z"/>
</g>
<g fill="None" fill-opacity="0.0" stroke="#93735E" stroke-opacity="1.00" stroke-width="0.3"><path d="
M 8.00 8.00 
C 8.39 7.83 10.97 8.66 11.00 9.00
C 14.03 9.21 8.56 10.97 10.00 10.00
C 8.44 10.61 7.57 10.68 8.00 13.00
C 8.09 13.48 8.00 14.00 8.00 14.00
C 8.23 14.14 10.94 14.43 11.00 15.00
C 12.82 15.13 10.14 18.01 10.00 16.00
C 8.15 16.85 7.56 17.35 8.00 20.00
C 9.28 19.47 9.86 20.97 11.00 21.00
C 14.03 21.21 8.56 22.97 10.00 22.00
C 8.44 22.61 7.57 22.68 8.00 25.00
C 8.09 25.48 8.00 26.00 8.00 26.00
C 8.23 26.14 10.94 26.43 11.00 27.00
C 14.03 27.21 8.56 28.97 10.00 28.00
C 8.44 28.61 7.57 28.68 8.00 31.00
C 8.09 31.48 8.00 32.00 8.00 32.00
C 8.23 32.14 10.94 32.43 11.00 33.00
C 14.03 33.21 8.56 34.97 10.00 34.00
C 8.44 34.61 7.57 34.68 8.00 37.00
C 8.09 37.48 8.00 38.00 8.00 38.00
C 8.00 38.50 8.08 39.51 8.00 40.00
C 8.94 40.80 12.73 39.74 14.00 40.00
C 14.00 27.67 14.00 15.33 14.00 3.00
C 12.00 3.00 10.00 3.00 8.00 3.00
C 8.00 4.67 8.00 6.33 8.00 8.00 Z"/>
</g>
<g fill="None" fill-opacity="0.0" stroke="#FEA000" stroke-opacity="1.00" stroke-width="0.3"><path d="
M 14.00 40.00 
C 23.26 39.16 32.72 40.63 42.00 40.00
C 42.00 34.67 42.00 29.33 42.00 24.00
C 42.00 22.00 42.00 20.00 42.00 18.00
C 42.00 16.67 42.00 15.33 42.00 14.00
C 42.00 12.67 42.00 11.33 42.00 10.00
C 42.00 9.50 42.00 9.00 42.00 9.00
C 42.00 7.00 42.00 5.00 42.00 3.00
C 32.69 3.42 23.30 2.44 14.00 3.00
C 14.00 15.33 14.00 27.67 14.00 40.00 Z"/>
</g>
<g fill="None" fill-opacity="0.0" stroke="#BCBCB0" stroke-opacity="0.49" stroke-width="0.3"><path d="
M 7.00 9.00 
C 7.27 8.76 8.09 8.09 8.00 8.00
C 8.00 8.16 7.23 8.72 7.00 9.00 Z"/>
</g>
<g fill="None" fill-opacity="0.0" stroke="#C0BEB5" stroke-opacity="0.90" stroke-width="0.3"><path d="
M 7.00 9.00 
C 5.50 10.78 6.30 11.26 7.00 13.00
C 7.34 12.77 8.00 13.00 8.00 13.00
C 7.57 10.68 8.44 10.61 10.00 10.00
C 10.35 9.86 11.03 9.32 11.00 9.00
C 10.97 8.66 8.39 7.83 8.00 8.00
C 8.09 8.09 7.27 8.76 7.00 9.00 Z"/>
</g>
<g fill="None" fill-opacity="0.0" stroke="#5F4B40" stroke-opacity="1.00" stroke-width="0.3"><path d="
M 10.00 10.00 
C 8.56 10.97 14.03 9.21 11.00 9.00
C 11.03 9.32 10.35 9.86 10.00 10.00 Z"/>
</g>
<g fill="None" fill-opacity="0.0" stroke="#2C883D" stroke-opacity="0.57" stroke-width="0.3"><path d="
M 42.00 10.00 
C 42.13 9.73 43.03 9.02 43.00 9.00
C 43.00 9.00 42.25 8.75 42.00 9.00
C 42.00 9.00 42.00 9.50 42.00 10.00 Z"/>
</g>
<g fill="None" fill-opacity="0.0" stroke="#328B3F" stroke-opacity="0.92" stroke-width="0.3"><path d="
M 42.00 10.00 
C 42.00 11.33 42.00 12.67 42.00 14.00
C 42.32 13.76 43.68 13.76 44.00 14.00
C 43.97 12.47 44.54 9.78 43.00 9.00
C 43.03 9.02 42.13 9.73 42.00 10.00 Z"/>
</g>
<g fill="None" fill-opacity="0.0" stroke="#B3B3A8" stroke-opacity="0.49" stroke-width="0.3"><path d="
M 7.00 15.00 
C 7.24 14.74 7.97 14.35 8.00 14.00
C 8.00 14.00 8.09 13.48 8.00 13.00
C 8.00 13.00 7.34 12.77 7.00 13.00
C 7.17 13.43 7.19 14.59 7.00 15.00 Z"/>
</g>
<g fill="None" fill-opacity="0.0" stroke="#BFBDB4" stroke-opacity="0.87" stroke-width="0.3"><path d="
M 7.00 15.00 
C 5.87 17.48 5.87 22.51 7.00 25.00
C 7.34 24.77 8.00 25.00 8.00 25.00
C 7.57 22.68 8.44 22.61 10.00 22.00
C 10.35 21.86 11.03 21.02 11.00 21.00
C 9.86 20.97 9.28 19.47 8.00 20.00
C 7.56 17.35 8.15 16.85 10.00 16.00
C 10.34 15.84 11.03 15.32 11.00 15.00
C 10.94 14.43 8.23 14.14 8.00 14.00
C 7.97 14.35 7.24 14.74 7.00 15.00 Z"/>
</g>
<g fill="None" fill-opacity="0.0" stroke="#D3B52E" stroke-opacity="1.00" stroke-width="0.3"><path d="
M 42.00 18.00 
C 42.32 18.24 43.68 18.24 44.00 18.00
C 44.00 16.67 44.02 15.33 44.00 14.00
C 43.68 13.76 42.32 13.76 42.00 14.00
C 42.00 15.33 42.00 16.67 42.00 18.00 Z"/>
</g>
<g fill="None" fill-opacity="0.0" stroke="#5F4B40" stroke-opacity="1.00" stroke-width="0.3"><path d="
M 10.00 16.00 
C 10.14 18.01 12.82 15.13 11.00 15.00
C 11.03 15.32 10.34 15.84 10.00 16.00 Z"/>
</g>
<g fill="None" fill-opacity="0.0" stroke="#C8362E" stroke-opacity="0.98" stroke-width="0.3"><path d="
M 42.00 24.00 
C 42.23 22.91 44.01 21.02 44.00 18.00
C 43.68 18.24 42.32 18.24 42.00 18.00
C 42.00 20.00 42.00 22.00 42.00 24.00 Z"/>
</g>
<g fill="None" fill-opacity="0.0" stroke="#5F4B40" stroke-opacity="1.00" stroke-width="0.3"><path d="
M 10.00 22.00 
C 8.56 22.97 14.03 21.21 11.00 21.00
C 11.03 21.02 10.35 21.86 10.00 22.00 Z"/>
</g>
<g fill="None" fill-opacity="0.0" stroke="#B3B3A8" stroke-opacity="0.49" stroke-width="0.3"><path d="
M 7.00 27.00 
C 7.27 26.76 7.97 26.35 8.00 26.00
C 8.00 26.00 8.09 25.48 8.00 25.00
C 8.00 25.00 7.34 24.77 7.00 25.00
C 7.19 25.41 7.17 26.57 7.00 27.00 Z"/>
</g>
<g fill="None" fill-opacity="0.0" stroke="#C0BEB5" stroke-opacity="0.90" stroke-width="0.3"><path d="
M 7.00 27.00 
C 6.19 29.02 6.17 28.93 7.00 31.00
C 7.34 30.77 8.00 31.00 8.00 31.00
C 7.57 28.68 8.44 28.61 10.00 28.00
C 10.35 27.86 11.03 27.32 11.00 27.00
C 10.94 26.43 8.23 26.14 8.00 26.00
C 7.97 26.35 7.27 26.76 7.00 27.00 Z"/>
</g>
<g fill="None" fill-opacity="0.0" stroke="#5F4B40" stroke-opacity="1.00" stroke-width="0.3"><path d="
M 10.00 28.00 
C 8.56 28.97 14.03 27.21 11.00 27.00
C 11.03 27.32 10.35 27.86 10.00 28.00 Z"/>
</g>
<g fill="None" fill-opacity="0.0" stroke="#B3B3A8" stroke-opacity="0.49" stroke-width="0.3"><path d="
M 7.00 33.00 
C 7.27 32.76 7.97 32.35 8.00 32.00
C 8.00 32.00 8.09 31.48 8.00 31.00
C 8.00 31.00 7.34 30.77 7.00 31.00
C 7.17 31.43 7.17 32.57 7.00 33.00 Z"/>
</g>
<g fill="None" fill-opacity="0.0" stroke="#C0BEB5" stroke-opacity="0.90" stroke-width="0.3"><path d="
M 7.00 33.00 
C 6.32 34.68 5.48 35.20 7.00 37.00
C 7.37 37.22 8.00 37.00 8.00 37.00
C 7.57 34.68 8.44 34.61 10.00 34.00
C 10.35 33.86 11.03 33.32 11.00 33.00
C 10.94 32.43 8.23 32.14 8.00 32.00
C 7.97 32.35 7.27 32.76 7.00 33.00 Z"/>
</g>
<g fill="None" fill-opacity="0.0" stroke="#5F4B40" stroke-opacity="1.00" stroke-width="0.3"><path d="
M 10.00 34.00 
C 8.56 34.97 14.03 33.21 11.00 33.00
C 11.03 33.32 10.35 33.86 10.00 34.00 Z"/>
</g>
<g fill="None" fill-opacity="0.0" stroke="#AAAAA2" stroke-opacity="0.48" stroke-width="0.3"><path d="
M 8.00 38.00 
C 8.00 38.00 8.09 37.48 8.00 37.00
C 8.00 37.00 7.37 37.22 7.00 37.00
C 7.23 37.28 7.89 37.74 8.00 38.00 Z"/>
</g>
<g fill="None" fill-opacity="0.0" stroke="#624F42" stroke-opacity="0.99" stroke-width="0.3"><path d="
M 14.00 45.00 
C 13.96 45.00 14.00 44.00 14.00 44.00
C 12.38 44.29 10.63 43.78 9.00 44.00
C 7.89 40.48 11.77 40.92 14.00 41.00
C 13.91 40.98 14.00 40.00 14.00 40.00
C 12.73 39.74 8.94 40.80 8.00 40.00
C 8.00 41.67 8.00 43.33 8.00 45.00
C 9.90 44.62 12.14 45.50 14.00 45.00 Z"/>
</g>
<g fill="None" fill-opacity="0.0" stroke="#F78300" stroke-opacity="1.00" stroke-width="0.3"><path d="
M 14.00 41.00 
C 22.93 41.81 32.05 40.39 41.00 41.00
C 40.75 46.29 33.33 43.45 29.00 44.00 C 24.67 44.55 18.50 43.59 14.00 44.00
C 14.00 44.00 13.96 45.00 14.00 45.00
C 22.24 45.74 32.82 46.18 41.00 45.00
C 41.23 44.95 41.87 44.27 42.00 44.00
C 42.33 42.92 42.00 41.14 42.00 40.00
C 32.72 40.63 23.26 39.16 14.00 40.00
C 14.00 40.00 13.91 40.98 14.00 41.00 Z"/>
</g>
<g fill="None" fill-opacity="0.0" stroke="#D3D2C4" stroke-opacity="1.00" stroke-width="0.3"><path d="
M 14.00 44.00 
C 18.50 43.59 24.67 44.55 29.00 44.00 C 33.33 43.45 40.75 46.29 41.00 41.00
C 32.05 40.39 22.93 41.81 14.00 41.00
C 11.77 40.92 7.89 40.48 9.00 44.00
C 10.63 43.78 12.38 44.29 14.00 44.00 Z"/>
</g>
<g fill="None" fill-opacity="0.0" stroke="#EE6D00" stroke-opacity="0.76" stroke-width="0.3"><path d="
M 41.00 45.00 
C 41.35 44.95 41.89 44.35 42.00 44.00
C 41.87 44.27 41.23 44.95 41.00 45.00 Z"/>
</g>
<g fill="#000000" fill-opacity="0.00" stroke="None">
<path d="
M 0.00 48.00 
L 48.00 48.00
L 48.00 0.00
L 0.00 0.00
L 0.00 48.00
M 42.00 9.00 
C 42.25 8.75 43.00 9.00 43.00 9.00
C 44.54 9.78 43.97 12.47 44.00 14.00
C 44.02 15.33 44.00 16.67 44.00 18.00
C 44.01 21.02 42.23 22.91 42.00 24.00
C 42.00 29.33 42.00 34.67 42.00 40.00
C 42.00 41.14 42.33 42.92 42.00 44.00
C 41.89 44.35 41.35 44.95 41.00 45.00
C 32.82 46.18 22.24 45.74 14.00 45.00
C 12.14 45.50 9.90 44.62 8.00 45.00
C 8.00 43.33 8.00 41.67 8.00 40.00
C 8.08 39.51 8.00 38.50 8.00 38.00
C 7.89 37.74 7.23 37.28 7.00 37.00
C 5.48 35.20 6.32 34.68 7.00 33.00
C 7.17 32.57 7.17 31.43 7.00 31.00
C 6.17 28.93 6.19 29.02 7.00 27.00
C 7.17 26.57 7.19 25.41 7.00 25.00
C 5.87 22.51 5.87 17.48 7.00 15.00
C 7.19 14.59 7.17 13.43 7.00 13.00
C 6.30 11.26 5.50 10.78 7.00 9.00
C 7.23 8.72 8.00 8.16 8.00 8.00
C 8.00 6.33 8.00 4.67 8.00 3.00
C 10.00 3.00 12.00 3.00 14.00 3.00
C 23.30 2.44 32.69 3.42 42.00 3.00
C 42.00 5.00 42.00 7.00 42.00 9.00 Z"/>
</g>
<g fill="#93735E" fill-opacity="1.00" stroke="None">
<path d="
M 8.00 8.00 
C 8.39 7.83 10.97 8.66 11.00 9.00
C 14.03 9.21 8.56 10.97 10.00 10.00
C 8.44 10.61 7.57 10.68 8.00 13.00
C 8.09 13.48 8.00 14.00 8.00 14.00
C 8.23 14.14 10.94 14.43 11.00 15.00
C 12.82 15.13 10.14 18.01 10.00 16.00
C 8.15 16.85 7.56 17.35 8.00 20.00
C 9.28 19.47 9.86 20.97 11.00 21.00
C 14.03 21.21 8.56 22.97 10.00 22.00
C 8.44 22.61 7.57 22.68 8.00 25.00
C 8.09 25.48 8.00 26.00 8.00 26.00
C 8.23 26.14 10.94 26.43 11.00 27.00
C 14.03 27.21 8.56 28.97 10.00 28.00
C 8.44 28.61 7.57 28.68 8.00 31.00
C 8.09 31.48 8.00 32.00 8.00 32.00
C 8.23 32.14 10.94 32.43 11.00 33.00
C 14.03 33.21 8.56 34.97 10.00 34.00
C 8.44 34.61 7.57 34.68 8.00 37.00
C 8.09 37.48 8.00 38.00 8.00 38.00
C 8.00 38.50 8.08 39.51 8.00 40.00
C 8.94 40.80 12.73 39.74 14.00 40.00
C 14.00 27.67 14.00 15.33 14.00 3.00
C 12.00 3.00 10.00 3.00 8.00 3.00
C 8.00 4.67 8.00 6.33 8.00 8.00 Z"/>
</g>
<g fill="#FEA000" fill-opacity="1.00" stroke="None">
<path d="
M 14.00 40.00 
C 23.26 39.16 32.72 40.63 42.00 40.00
C 42.00 34.67 42.00 29.33 42.00 24.00
C 42.00 22.00 42.00 20.00 42.00 18.00
C 42.00 16.67 42.00 15.33 42.00 14.00
C 42.00 12.67 42.00 11.33 42.00 10.00
C 42.00 9.50 42.00 9.00 42.00 9.00
C 42.00 7.00 42.00 5.00 42.00 3.00
C 32.69 3.42 23.30 2.44 14.00 3.00
C 14.00 15.33 14.00 27.67 14.00 40.00 Z"/>
</g>
<g fill="#BCBCB0" fill-opacity="0.49" stroke="None">
<path d="
M 7.00 9.00 
C 7.27 8.76 8.09 8.09 8.00 8.00
C 8.00 8.16 7.23 8.72 7.00 9.00 Z"/>
</g>
<g fill="#C0BEB5" fill-opacity="0.90" stroke="None">
<path d="
M 7.00 9.00 
C 5.50 10.78 6.30 11.26 7.00 13.00
C 7.34 12.77 8.00 13.00 8.00 13.00
C 7.57 10.68 8.44 10.61 10.00 10.00
C 10.35 9.86 11.03 9.32 11.00 9.00
C 10.97 8.66 8.39 7.83 8.00 8.00
C 8.09 8.09 7.27 8.76 7.00 9.00 Z"/>
</g>
<g fill="#5F4B40" fill-opacity="1.00" stroke="None">
<path d="
M 10.00 10.00 
C 8.56 10.97 14.03 9.21 11.00 9.00
C 11.03 9.32 10.35 9.86 10.00 10.00 Z"/>
</g>
<g fill="#2C883D" fill-opacity="0.57" stroke="None">
<path d="
M 42.00 10.00 
C 42.13 9.73 43.03 9.02 43.00 9.00
C 43.00 9.00 42.25 8.75 42.00 9.00
C 42.00 9.00 42.00 9.50 42.00 10.00 Z"/>
</g>
<g fill="#328B3F" fill-opacity="0.92" stroke="None">
<path d="
M 42.00 10.00 
C 42.00 11.33 42.00 12.67 42.00 14.00
C 42.32 13.76 43.68 13.76 44.00 14.00
C 43.97 12.47 44.54 9.78 43.00 9.00
C 43.03 9.02 42.13 9.73 42.00 10.00 Z"/>
</g>
<g fill="#B3B3A8" fill-opacity="0.49" stroke="None">
<path d="
M 7.00 15.00 
C 7.24 14.74 7.97 14.35 8.00 14.00
C 8.00 14.00 8.09 13.48 8.00 13.00
C 8.00 13.00 7.34 12.77 7.00 13.00
C 7.17 13.43 7.19 14.59 7.00 15.00 Z"/>
</g>
<g fill="#BFBDB4" fill-opacity="0.87" stroke="None">
<path d="
M 7.00 15.00 
C 5.87 17.48 5.87 22.51 7.00 25.00
C 7.34 24.77 8.00 25.00 8.00 25.00
C 7.57 22.68 8.44 22.61 10.00 22.00
C 10.35 21.86 11.03 21.02 11.00 21.00
C 9.86 20.97 9.28 19.47 8.00 20.00
C 7.56 17.35 8.15 16.85 10.00 16.00
C 10.34 15.84 11.03 15.32 11.00 15.00
C 10.94 14.43 8.23 14.14 8.00 14.00
C 7.97 14.35 7.24 14.74 7.00 15.00 Z"/>
</g>
<g fill="#D3B52E" fill-opacity="1.00" stroke="None">
<path d="
M 42.00 18.00 
C 42.32 18.24 43.68 18.24 44.00 18.00
C 44.00 16.67 44.02 15.33 44.00 14.00
C 43.68 13.76 42.32 13.76 42.00 14.00
C 42.00 15.33 42.00 16.67 42.00 18.00 Z"/>
</g>
<g fill="#5F4B40" fill-opacity="1.00" stroke="None">
<path d="
M 10.00 16.00 
C 10.14 18.01 12.82 15.13 11.00 15.00
C 11.03 15.32 10.34 15.84 10.00 16.00 Z"/>
</g>
<g fill="#C8362E" fill-opacity="0.98" stroke="None">
<path d="
M 42.00 24.00 
C 42.23 22.91 44.01 21.02 44.00 18.00
C 43.68 18.24 42.32 18.24 42.00 18.00
C 42.00 20.00 42.00 22.00 42.00 24.00 Z"/>
</g>
<g fill="#5F4B40" fill-opacity="1.00" stroke="None">
<path d="
M 10.00 22.00 
C 8.56 22.97 14.03 21.21 11.00 21.00
C 11.03 21.02 10.35 21.86 10.00 22.00 Z"/>
</g>
<g fill="#B3B3A8" fill-opacity="0.49" stroke="None">
<path d="
M 7.00 27.00 
C 7.27 26.76 7.97 26.35 8.00 26.00
C 8.00 26.00 8.09 25.48 8.00 25.00
C 8.00 25.00 7.34 24.77 7.00 25.00
C 7.19 25.41 7.17 26.57 7.00 27.00 Z"/>
</g>
<g fill="#C0BEB5" fill-opacity="0.90" stroke="None">
<path d="
M 7.00 27.00 
C 6.19 29.02 6.17 28.93 7.00 31.00
C 7.34 30.77 8.00 31.00 8.00 31.00
C 7.57 28.68 8.44 28.61 10.00 28.00
C 10.35 27.86 11.03 27.32 11.00 27.00
C 10.94 26.43 8.23 26.14 8.00 26.00
C 7.97 26.35 7.27 26.76 7.00 27.00 Z"/>
</g>
<g fill="#5F4B40" fill-opacity="1.00" stroke="None">
<path d="
M 10.00 28.00 
C 8.56 28.97 14.03 27.21 11.00 27.00
C 11.03 27.32 10.35 27.86 10.00 28.00 Z"/>
</g>
<g fill="#B3B3A8" fill-opacity="0.49" stroke="None">
<path d="
M 7.00 33.00 
C 7.27 32.76 7.97 32.35 8.00 32.00
C 8.00 32.00 8.09 31.48 8.00 31.00
C 8.00 31.00 7.34 30.77 7.00 31.00
C 7.17 31.43 7.17 32.57 7.00 33.00 Z"/>
</g>
<g fill="#C0BEB5" fill-opacity="0.90" stroke="None">
<path d="
M 7.00 33.00 
C 6.32 34.68 5.48 35.20 7.00 37.00
C 7.37 37.22 8.00 37.00 8.00 37.00
C 7.57 34.68 8.44 34.61 10.00 34.00
C 10.35 33.86 11.03 33.32 11.00 33.00
C 10.94 32.43 8.23 32.14 8.00 32.00
C 7.97 32.35 7.27 32.76 7.00 33.00 Z"/>
</g>
<g fill="#5F4B40" fill-opacity="1.00" stroke="None">
<path d="
M 10.00 34.00 
C 8.56 34.97 14.03 33.21 11.00 33.00
C 11.03 33.32 10.35 33.86 10.00 34.00 Z"/>
</g>
<g fill="#AAAAA2" fill-opacity="0.48" stroke="None">
<path d="
M 8.00 38.00 
C 8.00 38.00 8.09 37.48 8.00 37.00
C 8.00 37.00 7.37 37.22 7.00 37.00
C 7.23 37.28 7.89 37.74 8.00 38.00 Z"/>
</g>
<g fill="#624F42" fill-opacity="0.99" stroke="None">
<path d="
M 14.00 45.00 
C 13.96 45.00 14.00 44.00 14.00 44.00
C 12.38 44.29 10.63 43.78 9.00 44.00
C 7.89 40.48 11.77 40.92 14.00 41.00
C 13.91 40.98 14.00 40.00 14.00 40.00
C 12.73 39.74 8.94 40.80 8.00 40.00
C 8.00 41.67 8.00 43.33 8.00 45.00
C 9.90 44.62 12.14 45.50 14.00 45.00 Z"/>
</g>
<g fill="#F78300" fill-opacity="1.00" stroke="None">
<path d="
M 14.00 41.00 
C 22.93 41.81 32.05 40.39 41.00 41.00
C 40.75 46.29 33.33 43.45 29.00 44.00 C 24.67 44.55 18.50 43.59 14.00 44.00
C 14.00 44.00 13.96 45.00 14.00 45.00
C 22.24 45.74 32.82 46.18 41.00 45.00
C 41.23 44.95 41.87 44.27 42.00 44.00
C 42.33 42.92 42.00 41.14 42.00 40.00
C 32.72 40.63 23.26 39.16 14.00 40.00
C 14.00 40.00 13.91 40.98 14.00 41.00 Z"/>
</g>
<g fill="#D3D2C4" fill-opacity="1.00" stroke="None">
<path d="
M 14.00 44.00 
C 18.50 43.59 24.67 44.55 29.00 44.00 C 33.33 43.45 40.75 46.29 41.00 41.00
C 32.05 40.39 22.93 41.81 14.00 41.00
C 11.77 40.92 7.89 40.48 9.00 44.00
C 10.63 43.78 12.38 44.29 14.00 44.00 Z"/>
</g>
<g fill="#EE6D00" fill-opacity="0.76" stroke="None">
<path d="
M 41.00 45.00 
C 41.35 44.95 41.89 44.35 42.00 44.00
C 41.87 44.27 41.23 44.95 41.00 45.00 Z"/>
</g>
</svg>